<svg width="800" height="800" viewBox="0 0 800 800" fill="none" xmlns="http://www.w3.org/2000/svg">
<mask id="mask0_2875_115" style="mask-type:alpha" maskUnits="userSpaceOnUse" x="94" y="58" width="612" height="682">
<path opacity="0.971" fill-rule="evenodd" clip-rule="evenodd" d="M340.5 59.4999C363.428 56.5329 383.262 62.8663 400 78.4999C418.598 61.0858 440.432 55.2525 465.5 60.9999C503.55 69.6926 537.55 86.3593 567.5 111C604.668 130.005 619.002 160.005 610.5 201C651.105 213.94 674.939 241.44 682 283.5C683.147 295.823 682.313 307.989 679.5 320C709.637 357.268 713.637 397.268 691.5 440C710.586 475.435 710.086 510.601 690 545.5C682.311 557.356 672.477 567.023 660.5 574.5C660.384 629.061 635.384 666.894 585.5 688C554.39 732.2 512.39 747.866 459.5 735C434.625 726.822 414.792 711.989 400 690.5C368.571 732.869 327.071 747.703 275.5 735C249.368 726.777 229.035 711.111 214.5 688C164.391 666.993 139.391 629.159 139.5 574.5C106.091 551.338 91.258 519.338 94.9999 478.5C97.1229 464.796 101.623 451.963 108.5 440C89.684 405.069 89.8507 370.236 109 335.5C112.642 330.358 116.475 325.358 120.5 320.5C111.248 276.412 124.582 240.912 160.5 214C169.245 208.46 178.578 204.293 188.5 201.5C181.949 171.329 189.616 145.495 211.5 124C230.328 111.085 249.328 98.4185 268.5 85.9999C291.068 72.8652 315.068 64.0319 340.5 59.4999ZM344.5 95.4999C362.456 92.8829 374.622 99.8829 381 116.5C381.667 160.833 381.667 205.167 381 249.5C370.736 244.448 359.903 242.615 348.5 244C336.971 249.58 333.471 258.413 338 270.5C343.247 277.704 350.414 280.871 359.5 280C370.238 283.071 377.404 289.904 381 300.5C381.667 382.833 381.667 465.167 381 547.5C366.776 534.805 350.276 526.471 331.5 522.5C320.629 523.872 314.629 530.039 313.5 541C314.064 547.129 316.731 552.129 321.5 556C363.968 568.776 383.802 597.276 381 641.5C374.136 673.418 354.969 693.584 323.5 702C296.023 706.729 272.523 699.229 253 679.5C247.833 672.333 242.667 665.167 237.5 658C191.744 643.573 172.077 612.573 178.5 565C177.936 558.871 175.269 553.871 170.5 550C141.499 536.84 128.333 514.34 131 482.5C131.865 477.375 133.198 472.375 135 467.5C153.511 481.338 174.345 487.505 197.5 486C208.314 481.879 212.48 474.046 210 462.5C208.262 458.759 205.762 455.592 202.5 453C191.395 451.375 180.395 449.041 169.5 446C141.592 432.697 128.758 410.53 131 379.5C134.026 361.441 142.693 346.774 157 335.5C159.067 331.361 159.734 327.027 159 322.5C147.493 291.705 154.326 265.872 179.5 245C207.046 228.306 233.379 229.973 258.5 250C272.159 263.958 278.992 280.791 279 300.5C283.121 311.314 290.954 315.48 302.5 313C311.199 309.441 315.199 302.941 314.5 293.5C309.191 239.523 279.858 207.523 226.5 197.5C217.682 171.966 225.682 153.8 250.5 143C272.75 138.376 288.917 146.209 299 166.5C307.743 174.991 317.076 175.658 327 168.5C331.613 162.046 332.613 155.046 330 147.5C321.833 132.667 310.333 121.167 295.5 113C311.033 104.658 327.366 98.8243 344.5 95.4999ZM440.5 95.4999C463.383 95.7203 484.716 101.554 504.5 113C489 120.5 477.5 132 470 147.5C466.167 167.667 474.333 175.833 494.5 172C499.876 168.429 503.709 163.595 506 157.5C522.184 139.613 540.684 136.78 561.5 149C577.046 162.351 581.046 178.517 573.5 197.5C526.761 205.406 497.928 232.406 487 278.5C485.647 285.792 485.314 293.125 486 300.5C490.121 311.314 497.954 315.48 509.5 313C515.731 311.037 519.564 306.87 521 300.5C521.432 271.441 534.599 250.608 560.5 238C590.327 228.167 615.16 235.334 635 259.5C644.737 273.95 648.237 289.783 645.5 307C643.83 313.341 642.163 319.674 640.5 326C640.762 328.547 641.262 331.047 642 333.5C648.316 340.155 654.316 347.155 660 354.5C674.274 380.86 672.274 405.86 654 429.5C647.48 436.846 639.647 442.346 630.5 446C619.605 449.041 608.605 451.375 597.5 453C588.02 461.753 587.02 471.42 594.5 482C596.888 483.861 599.554 485.194 602.5 486C625.203 487.325 645.87 481.491 664.5 468.5C674.687 496.915 668.354 521.082 645.5 541C640.49 544.507 635.157 547.507 629.5 550C624.731 553.871 622.064 558.871 621.5 565C628.266 612.137 608.932 642.804 563.5 657C557.878 664.411 552.378 671.911 547 679.5C517.713 707.044 485.546 710.878 450.5 691C427.894 673.951 416.894 651.117 417.5 622.5C418.326 499.844 418.826 377.178 419 254.5C424.058 239.542 434.558 232.376 450.5 233C458.597 230.055 463.264 224.222 464.5 215.5C463.676 207.005 459.343 201.172 451.5 198C440.097 196.615 429.264 198.448 419 203.5C418.333 174.5 418.333 145.5 419 116.5C422.185 105.341 429.352 98.3409 440.5 95.4999Z" fill="black"/>
<path opacity="0.97" fill-rule="evenodd" clip-rule="evenodd" d="M602.5 266.5C614.387 265.179 621.887 270.179 625 281.5C623.141 332.865 597.641 366.199 548.5 381.5C556.956 397.425 570.29 405.258 588.5 405C597.082 407.648 601.749 413.481 602.5 422.5C601.745 431.531 597.078 437.365 588.5 440C553.402 440.871 528.569 425.371 514 393.5C512.523 389.57 511.356 385.57 510.5 381.5C488.327 377.665 469.494 367.665 454 351.5C447.591 335.986 452.591 326.319 469 322.5C472.763 322.865 476.263 324.032 479.5 326C498.958 345.614 521.958 351.281 548.5 343C576.014 330.507 589.847 309.007 590 278.5C592.208 272.337 596.375 268.337 602.5 266.5Z" fill="black"/>
<path opacity="0.97" fill-rule="evenodd" clip-rule="evenodd" d="M213.5 277.5C220.648 277.324 226.481 279.991 231 285.5C233.289 295.41 235.289 305.41 237 315.5C250.666 347.585 274.833 361.419 309.5 357C323.658 353.591 335.658 346.591 345.5 336C360.52 331.837 369.52 337.337 372.5 352.5C371.894 356.028 370.728 359.361 369 362.5C353.81 378.68 335.31 389.013 313.5 393.5C301.952 429.207 277.452 448.873 240 452.5C222.883 449.263 217.55 439.596 224 423.5C230.414 417.069 238.247 414.235 247.5 415C260.508 411.476 269.508 403.643 274.5 391.5C247.448 385.566 226.614 370.899 212 347.5C203.119 332.189 198.285 315.689 197.5 298C197.875 287.141 203.208 280.308 213.5 277.5Z" fill="black"/>
<path opacity="0.97" fill-rule="evenodd" clip-rule="evenodd" d="M444.5 438.5C492.813 440.993 524.98 464.993 541 510.5C542.772 517.406 543.939 524.406 544.5 531.5C554.108 529.89 561.275 533.224 566 541.5C569.502 552.338 566.335 560.505 556.5 566C525.791 566.077 503.957 579.911 491 607.5C488.377 615.28 487.044 623.28 487 631.5C484.147 644.02 476.314 649.187 463.5 647C455.51 643.701 451.176 637.701 450.5 629C452.808 588.509 471.808 559.009 507.5 540.5C508.323 516.314 498.657 497.481 478.5 484C466.322 477.497 453.322 474.164 439.5 474C429.587 469.009 426.087 461.176 429 450.5C432.06 443.589 437.226 439.589 444.5 438.5Z" fill="black"/>
<path opacity="0.971" fill-rule="evenodd" clip-rule="evenodd" d="M318.5 461.5C335.064 464.293 340.564 473.626 335 489.5C333.5 492.333 331.333 494.5 328.5 496C318.103 497.618 307.769 499.618 297.5 502C270.92 513.77 257.253 534.27 256.5 563.5C284.408 575.919 302.575 596.919 311 626.5C314.373 637.386 315.04 648.386 313 659.5C306.919 670.526 298.085 673.36 286.5 668C284.667 666.167 282.833 664.333 281 662.5C279.224 651.42 276.891 640.42 274 629.5C261.016 602.743 239.516 589.243 209.5 589C197.801 582.569 194.967 573.402 201 561.5C206.352 555.079 213.185 552.745 221.5 554.5C223.993 521.34 238.993 495.507 266.5 477C282.647 467.447 299.98 462.281 318.5 461.5Z" fill="black"/>
</mask>
<g mask="url(#mask0_2875_115)">
<rect x="66" y="42" width="669" height="716" fill="url(#paint0_linear_2875_115)"/>
</g>
<defs>
<linearGradient id="paint0_linear_2875_115" x1="735" y1="42" x2="66" y2="758" gradientUnits="userSpaceOnUse">
<stop stop-color="#0085FF"/>
<stop offset="1" stop-color="#EB00FF"/>
</linearGradient>
</defs>
</svg>
